<svg viewBox="0 0 442 625" xmlns="http://www.w3.org/2000/svg" xml:space="preserve" style="fill-rule:evenodd;clip-rule:evenodd;stroke-linejoin:round;stroke-miterlimit:2">
    <path d="M559.67 201.92c-23.18 0-44.77 6.71-63 18.26-3.65 2.31-7.15 4.81-10.51 7.49-.03.02-.05.04-.08.06-1.05.84-2.07 1.69-3.09 2.56-.17.15-.34.3-.51.44-3.03 2.63-5.92 5.4-8.66 8.32-.16.17-.32.33-.48.5-.79.85-1.56 1.71-2.33 2.58-.32.36-.63.73-.95 1.09-.72.84-1.44 1.69-2.14 2.56-.29.35-.56.72-.84 1.07a120.9 120.9 0 0 0-3.61 4.82c-.34.47-.68.94-1.01 1.41-.54.79-1.06 1.59-1.58 2.39-.41.62-.81 1.25-1.2 1.87-.48.77-.96 1.54-1.42 2.32-.44.74-.87 1.49-1.29 2.25-.42.75-.85 1.49-1.26 2.25-.7 1.31-1.38 2.63-2.03 3.97-.32.66-.63 1.33-.94 2-.42.9-.83 1.81-1.23 2.73-.3.68-.59 1.36-.87 2.05-.42 1.01-.81 2.03-1.2 3.05-.22.58-.45 1.15-.66 1.74-.56 1.56-1.1 3.13-1.6 4.71-.16.49-.29.99-.44 1.49-.36 1.19-.7 2.39-1.02 3.6-.16.61-.32 1.22-.47 1.83-.3 1.19-.57 2.4-.83 3.6-.11.53-.24 1.06-.34 1.6-.34 1.71-.66 3.44-.92 5.17l-.12.88c-.22 1.48-.41 2.98-.57 4.48-.06.57-.11 1.14-.17 1.71-.12 1.3-.22 2.61-.3 3.92-.03.55-.07 1.09-.1 1.64-.08 1.82-.14 3.65-.14 5.49v13.79c0 10.95 8.88 19.84 19.84 19.84h13.79c65.13 0 117.92-52.8 117.92-117.92 0-18.57-15.06-33.63-33.63-33.63l-.01.02Z" style="fill:#50c878;fill-rule:nonzero" transform="translate(-151.91 -148.883)"/>
    <path d="M513.8 197.63c-2.58-10.94-6.76-21.7-12.67-31.93-9.29-16.08-29.85-21.59-45.94-12.31-56.4 32.56-75.73 104.69-43.16 161.09 4.01 6.95 10.14 11.91 17.09 14.58v-9.21c0-55.85 35.26-103.6 84.68-122.21v-.01Z" style="fill:#50c878;fill-rule:nonzero" transform="translate(-151.91 -148.883)"/>
    <path d="M531.91 495.48c9.9-20.23 10.55-44.68-.39-66.33-18.52-36.63-63.19-51.34-99.84-32.91-11.34-26.61-37.73-45.27-68.48-45.27-30.75 0-55.32 17.39-67.26 42.54l1.49 2.35a74.09 74.09 0 0 0-32.71-7.57c-41.1 0-74.41 33.31-74.41 74.41 0 10.4 2.13 20.3 5.99 29.29l3.63.69c-28.06 10.65-48.02 37.78-48.02 69.58 0 31.8 18.81 57.35 45.58 68.62h-.03c-4.59 9.65-7.15 20.46-7.15 31.87 0 41.1 33.31 74.41 74.41 74.41 11.06 0 21.55-2.42 30.99-6.75 11.82 25.46 37.57 43.14 67.49 43.14 29.92 0 56.68-18.35 68.18-44.59a74.252 74.252 0 0 0 26.93 8.08c40.88 4.17 77.41-25.59 81.57-66.48 1.41-13.84-1.07-27.18-6.55-38.94 17.11-7.4 28.19-21.62 35.9-40.2 15.33-36.97-1.36-79.22-37.31-95.94h-.01ZM272.19 676.09h-31.16v-31.16h31.16v31.16ZM408.07 450.2h-30.29v-30.29h30.29v30.29Zm74.87 82.22h-61.02V471.4h61.02v61.02Z" style="fill:#751423;fill-rule:nonzero" transform="translate(-151.91 -148.883)"/>
    <path style="fill:#bc7873" d="M421.92 471.4h61.02v61.02h-61.02zM241.03 644.93h31.16v31.16h-31.16zM377.78 419.9h30.29v30.29h-30.29z" transform="translate(-151.91 -148.883)"/>
</svg>
